<svg xmlns="http://www.w3.org/2000/svg" viewBox="0 0 100 100" width="100" height="100">
  <defs>
    <linearGradient id="fav-amber" x1="0%" y1="0%" x2="100%" y2="100%">
      <stop offset="0%" stop-color="#FBBF24" />
      <stop offset="100%" stop-color="#F59E0B" />
    </linearGradient>
    <linearGradient id="fav-coral" x1="0%" y1="0%" x2="100%" y2="100%">
      <stop offset="0%" stop-color="#F97316" />
      <stop offset="100%" stop-color="#EF4444" />
    </linearGradient>
    <linearGradient id="fav-rose" x1="0%" y1="0%" x2="100%" y2="100%">
      <stop offset="0%" stop-color="#EC4899" />
      <stop offset="100%" stop-color="#8B5CF6" />
    </linearGradient>
    <linearGradient id="fav-blue" x1="0%" y1="0%" x2="100%" y2="100%">
      <stop offset="0%" stop-color="#3B82F6" />
      <stop offset="100%" stop-color="#06B6D4" />
    </linearGradient>
    <linearGradient id="fav-teal" x1="0%" y1="0%" x2="100%" y2="100%">
      <stop offset="0%" stop-color="#0D9488" />
      <stop offset="100%" stop-color="#10B981" />
    </linearGradient>
    <linearGradient id="fav-purple" x1="0%" y1="0%" x2="100%" y2="100%">
      <stop offset="0%" stop-color="#8B5CF6" />
      <stop offset="100%" stop-color="#6366F1" />
    </linearGradient>
  </defs>
  <polygon points="50,5 88,27 88,73 50,95 12,73 12,27" fill="none" stroke="#1E293B" stroke-width="3" stroke-linejoin="round" />
  <polygon points="50,5 88,27 72,38" fill="url(#fav-blue)" stroke="#1E293B" stroke-width="1.5" stroke-linejoin="round" />
  <polygon points="50,5 72,38 50,25" fill="url(#fav-teal)" stroke="#1E293B" stroke-width="1.5" stroke-linejoin="round" />
  <polygon points="88,27 88,73 72,62" fill="url(#fav-purple)" stroke="#1E293B" stroke-width="1.5" stroke-linejoin="round" />
  <polygon points="88,27 72,62 72,38" fill="url(#fav-blue)" stroke="#1E293B" stroke-width="1.5" stroke-linejoin="round" />
  <polygon points="88,73 50,95 50,75" fill="url(#fav-teal)" stroke="#1E293B" stroke-width="1.5" stroke-linejoin="round" />
  <polygon points="88,73 50,75 72,62" fill="url(#fav-purple)" stroke="#1E293B" stroke-width="1.5" stroke-linejoin="round" />
  <polygon points="50,95 12,73 28,62" fill="url(#fav-blue)" stroke="#1E293B" stroke-width="1.5" stroke-linejoin="round" />
  <polygon points="50,95 28,62 50,75" fill="url(#fav-teal)" stroke="#1E293B" stroke-width="1.5" stroke-linejoin="round" />
  <polygon points="12,73 12,27 28,38" fill="url(#fav-purple)" stroke="#1E293B" stroke-width="1.5" stroke-linejoin="round" />
  <polygon points="12,73 28,38 28,62" fill="url(#fav-blue)" stroke="#1E293B" stroke-width="1.5" stroke-linejoin="round" />
  <polygon points="12,27 50,5 50,25" fill="url(#fav-teal)" stroke="#1E293B" stroke-width="1.5" stroke-linejoin="round" />
  <polygon points="12,27 50,25 28,38" fill="url(#fav-purple)" stroke="#1E293B" stroke-width="1.5" stroke-linejoin="round" />
  <polygon points="50,50 50,25 72,38" fill="url(#fav-amber)" stroke="#1E293B" stroke-width="1.5" stroke-linejoin="round" />
  <polygon points="50,50 72,38 72,62" fill="url(#fav-coral)" stroke="#1E293B" stroke-width="1.5" stroke-linejoin="round" />
  <polygon points="50,50 72,62 50,75" fill="url(#fav-rose)" stroke="#1E293B" stroke-width="1.5" stroke-linejoin="round" />
  <polygon points="50,50 50,75 28,62" fill="url(#fav-rose)" stroke="#1E293B" stroke-width="1.5" stroke-linejoin="round" />
  <polygon points="50,50 28,62 28,38" fill="url(#fav-coral)" stroke="#1E293B" stroke-width="1.5" stroke-linejoin="round" />
  <polygon points="50,50 28,38 50,25" fill="url(#fav-amber)" stroke="#1E293B" stroke-width="1.5" stroke-linejoin="round" />
</svg>
